# Blender 5.1.2
# www.blender.org
mtllib Crate1_triangle.mtl
o Cube
v -1.000000 -1.000000 1.000000
v -1.000000 -1.000000 -1.000000
v 1.000000 -1.000000 -1.000000
v 1.000000 -1.000000 1.000000
v -1.000000 1.000000 1.000000
v -1.000000 1.000000 -1.000000
v 1.000000 1.000000 -1.000000
v 1.000000 1.000000 1.000000
vn -1.0000 -0.0000 -0.0000
vn -0.0000 -0.0000 -1.0000
vn 1.0000 -0.0000 -0.0000
vn -0.0000 -0.0000 1.0000
vn -0.0000 -1.0000 -0.0000
vn -0.0000 1.0000 -0.0000
vt 1.000000 0.000000
vt 0.000000 1.000000
vt 0.000000 0.000000
vt 1.000000 1.000000
s 0
usemtl Material.002
f 6/1/1 1/2/1 5/3/1
f 7/1/2 2/2/2 6/3/2
f 8/1/3 3/2/3 7/3/3
f 5/1/4 4/2/4 8/3/4
f 2/1/5 4/2/5 1/3/5
f 7/1/6 5/2/6 8/3/6
f 6/1/1 2/4/1 1/2/1
f 7/1/2 3/4/2 2/2/2
f 8/1/3 4/4/3 3/2/3
f 5/1/4 1/4/4 4/2/4
f 2/1/5 3/4/5 4/2/5
f 7/1/6 6/4/6 5/2/6
